if (_typeface_js && _typeface_js.loadFace) _typeface_js.loadFace({"glyphs":{"0":{"ha":681,"x_min":76,"x_max":605,"o":"m 605 495 l 571 460 l 511 519 l 511 771 l 605 866 l 605 495 m 587 884 l 494 789 l 187 789 l 93 884 l 587 884 m 170 519 l 111 460 l 76 495 l 76 866 l 170 771 l 170 519 m 605 18 l 511 112 l 511 365 l 571 424 l 605 388 l 605 18 m 587 0 l 93 0 l 187 95 l 494 95 l 587 0 m 170 112 l 76 18 l 76 388 l 111 424 l 170 365 l 170 112 z "},"1":{"ha":362,"x_min":134,"x_max":229,"o":"m 229 388 l 229 18 l 134 112 l 134 365 l 193 424 l 229 388 m 134 519 l 134 771 l 229 866 l 229 495 l 193 460 l 134 519 z "},"2":{"ha":681,"x_min":76,"x_max":605,"o":"m 587 884 l 494 789 l 187 789 l 93 884 l 587 884 m 587 0 l 93 0 l 187 95 l 494 95 l 587 0 m 170 365 l 170 112 l 76 18 l 76 388 l 111 424 l 170 365 m 511 519 l 511 771 l 605 866 l 605 495 l 571 460 l 511 519 m 505 489 l 553 442 l 505 395 l 176 395 l 129 442 l 176 489 l 505 489 z "},"3":{"ha":681,"x_min":93,"x_max":605,"o":"m 587 884 l 494 789 l 187 789 l 93 884 l 587 884 m 587 0 l 93 0 l 187 95 l 494 95 l 587 0 m 605 388 l 605 18 l 511 112 l 511 365 l 571 424 l 605 388 m 511 519 l 511 771 l 605 866 l 605 495 l 571 460 l 511 519 m 505 489 l 553 442 l 505 395 l 176 395 l 129 442 l 176 489 l 505 489 z "},"4":{"ha":681,"x_min":76,"x_max":605,"o":"m 76 495 l 76 866 l 170 771 l 170 519 l 111 460 l 76 495 m 605 388 l 605 18 l 511 112 l 511 365 l 571 424 l 605 388 m 511 519 l 511 771 l 605 866 l 605 495 l 571 460 l 511 519 m 505 489 l 553 442 l 505 395 l 176 395 l 129 442 l 176 489 l 505 489 z "},"5":{"ha":681,"x_min":76,"x_max":605,"o":"m 587 884 l 494 789 l 187 789 l 93 884 l 587 884 m 587 0 l 93 0 l 187 95 l 494 95 l 587 0 m 76 495 l 76 866 l 170 771 l 170 519 l 111 460 l 76 495 m 605 388 l 605 18 l 511 112 l 511 365 l 571 424 l 605 388 m 505 489 l 553 442 l 505 395 l 176 395 l 129 442 l 176 489 l 505 489 z "},"6":{"ha":681,"x_min":76,"x_max":605,"o":"m 587 884 l 494 789 l 187 789 l 93 884 l 587 884 m 587 0 l 93 0 l 187 95 l 494 95 l 587 0 m 170 365 l 170 112 l 76 18 l 76 388 l 111 424 l 170 365 m 76 495 l 76 866 l 170 771 l 170 519 l 111 460 l 76 495 m 605 388 l 605 18 l 511 112 l 511 365 l 571 424 l 605 388 m 505 489 l 553 442 l 505 395 l 176 395 l 129 442 l 176 489 l 505 489 z "},"7":{"ha":681,"x_min":93,"x_max":605,"o":"m 587 884 l 494 789 l 187 789 l 93 884 l 587 884 m 605 388 l 605 18 l 511 112 l 511 365 l 571 424 l 605 388 m 511 519 l 511 771 l 605 866 l 605 495 l 571 460 l 511 519 z "},"8":{"ha":681,"x_min":76,"x_max":605,"o":"m 587 884 l 494 789 l 187 789 l 93 884 l 587 884 m 587 0 l 93 0 l 187 95 l 494 95 l 587 0 m 170 365 l 170 112 l 76 18 l 76 388 l 111 424 l 170 365 m 76 495 l 76 866 l 170 771 l 170 519 l 111 460 l 76 495 m 605 388 l 605 18 l 511 112 l 511 365 l 571 424 l 605 388 m 511 519 l 511 771 l 605 866 l 605 495 l 571 460 l 511 519 m 505 489 l 553 442 l 505 395 l 176 395 l 129 442 l 176 489 l 505 489 z "},"9":{"ha":681,"x_min":76,"x_max":605,"o":"m 587 884 l 494 789 l 187 789 l 93 884 l 587 884 m 587 0 l 93 0 l 187 95 l 494 95 l 587 0 m 76 495 l 76 866 l 170 771 l 170 519 l 111 460 l 76 495 m 605 388 l 605 18 l 511 112 l 511 365 l 571 424 l 605 388 m 511 519 l 511 771 l 605 866 l 605 495 l 571 460 l 511 519 m 505 489 l 553 442 l 505 395 l 176 395 l 129 442 l 176 489 l 505 489 z "}," ":{"ha":328,"x_min":0,"x_max":0,"o":""},"!":{"ha":362,"x_min":134,"x_max":229,"o":"m 229 388 l 229 18 l 134 112 l 134 365 l 193 424 l 229 388 m 134 519 l 134 789 l 229 884 l 229 495 l 193 460 l 134 519 m 229 -18 l 134 -18 l 134 -112 l 229 -112 l 229 -18 z "},"\"":{"ha":386,"x_min":76,"x_max":312,"o":"m 170 718 l 122 672 l 76 718 l 76 884 l 170 884 l 170 718 m 312 718 l 264 672 l 217 718 l 217 884 l 312 884 l 312 718 z "},"#":{"ha":705,"x_min":16,"x_max":629,"o":"m 275 398 l 229 351 l 181 398 l 181 486 l 229 533 l 275 486 l 275 398 m 399 332 l 352 285 l 293 285 l 246 332 l 293 379 l 352 379 l 399 332 m 211 332 l 163 285 l 63 285 l 16 332 l 63 379 l 163 379 l 211 332 m 275 121 l 229 73 l 181 121 l 181 268 l 229 314 l 275 268 l 275 121 m 463 398 l 417 351 l 370 398 l 370 486 l 417 533 l 463 486 l 463 442 l 463 398 m 629 332 l 582 285 l 481 285 l 434 332 l 481 379 l 582 379 l 629 332 m 463 121 l 417 73 l 370 121 l 370 268 l 417 314 l 463 268 l 463 121 m 275 615 l 229 568 l 181 615 l 181 763 l 229 811 l 275 763 l 275 615 m 399 551 l 352 504 l 293 504 l 246 551 l 293 597 l 352 597 l 399 551 m 211 551 l 163 504 l 63 504 l 16 551 l 63 597 l 163 597 l 211 551 m 463 615 l 417 568 l 370 615 l 370 763 l 417 811 l 463 763 l 463 615 m 629 551 l 582 504 l 481 504 l 434 551 l 481 597 l 582 597 l 629 551 z "},"$":{"ha":681,"x_min":76,"x_max":605,"o":"m 605 837 l 558 789 l 187 789 l 140 837 l 187 884 l 558 884 l 605 837 m 605 112 l 558 64 l 511 112 l 511 365 l 571 424 l 605 388 l 605 112 m 170 519 l 111 460 l 76 495 l 76 771 l 122 819 l 170 771 l 170 519 m 122 0 l 76 47 l 122 95 l 494 95 l 540 47 l 494 0 l 122 0 m 505 489 l 553 442 l 505 395 l 176 395 l 129 442 l 176 489 l 505 489 m 293 1025 l 340 1072 l 388 1025 l 388 907 l 293 907 l 293 1025 m 293 -23 l 388 -23 l 388 -141 l 340 -188 l 293 -141 l 293 -23 z "},"%":{"ha":840,"x_min":76,"x_max":764,"o":"m 335 846 l 288 798 l 187 798 l 140 846 l 187 893 l 288 893 l 335 846 m 335 539 l 288 492 l 187 492 l 140 539 l 187 587 l 288 587 l 335 539 m 76 605 l 122 559 l 170 605 l 170 780 l 122 828 l 76 780 l 76 605 m 304 605 l 304 780 l 352 828 l 399 780 l 399 605 l 352 559 l 304 605 m 699 354 l 653 306 l 553 306 l 505 354 l 553 400 l 653 400 l 699 354 m 699 47 l 653 0 l 553 0 l 505 47 l 553 95 l 653 95 l 699 47 m 441 112 l 487 67 l 535 112 l 535 288 l 487 336 l 441 288 l 441 112 m 670 112 l 670 288 l 717 336 l 764 288 l 764 112 l 717 67 l 670 112 m 446 404 l 217 5 l 182 134 l 354 429 l 433 452 l 446 404 m 429 563 l 600 859 l 730 893 l 499 496 l 451 482 l 429 563 z "},"&":{"ha":681,"x_min":76,"x_max":682,"o":"m 540 837 l 494 789 l 187 789 l 140 837 l 187 884 l 494 884 l 540 837 m 605 495 l 571 460 l 511 519 l 511 606 l 558 654 l 605 606 l 605 495 m 605 112 l 558 64 l 511 112 l 511 365 l 571 424 l 605 388 l 605 112 m 553 442 l 505 395 l 176 395 l 129 442 l 176 489 l 505 489 l 553 442 m 170 519 l 111 460 l 76 495 l 76 771 l 122 819 l 170 771 l 170 519 m 540 47 l 494 0 l 187 0 l 140 47 l 187 95 l 494 95 l 540 47 m 170 112 l 122 64 l 76 112 l 76 388 l 111 424 l 170 365 l 170 112 m 635 395 l 587 442 l 635 489 l 682 442 l 635 395 z "},"'":{"ha":245,"x_min":76,"x_max":170,"o":"m 170 718 l 122 672 l 76 718 l 76 884 l 170 884 l 170 718 z "},"(":{"ha":446,"x_min":76,"x_max":370,"o":"m 370 884 l 275 789 l 187 789 l 140 837 l 187 884 l 370 884 m 170 519 l 111 460 l 76 495 l 76 771 l 122 819 l 170 771 l 170 519 m 170 112 l 122 64 l 76 112 l 76 388 l 111 424 l 170 365 l 170 112 m 370 0 l 187 0 l 140 47 l 187 95 l 275 95 l 370 0 z "},")":{"ha":446,"x_min":76,"x_max":370,"o":"m 370 112 l 322 64 l 275 112 l 275 365 l 335 424 l 370 388 l 370 112 m 370 495 l 335 460 l 275 519 l 275 771 l 322 819 l 370 771 l 370 495 m 304 837 l 258 789 l 170 789 l 76 884 l 258 884 l 304 837 m 304 47 l 258 0 l 76 0 l 170 95 l 258 95 l 304 47 z "},"*":{"ha":549,"x_min":76,"x_max":473,"o":"m 93 705 l 76 769 l 140 787 l 202 751 l 254 668 l 159 668 l 93 705 m 409 521 l 473 538 l 456 605 l 390 645 l 295 645 l 346 561 l 409 521 m 321 471 l 274 424 l 227 471 l 227 543 l 274 630 l 321 547 l 321 471 m 321 763 l 274 678 l 227 763 l 227 837 l 274 884 l 321 837 l 321 763 m 140 521 l 76 538 l 93 604 l 159 640 l 254 640 l 202 554 l 140 521 m 390 670 l 295 670 l 346 754 l 409 787 l 473 769 l 456 705 l 390 670 z "},"+":{"ha":574,"x_min":76,"x_max":499,"o":"m 335 506 l 288 460 l 240 506 l 240 606 l 288 654 l 335 606 l 335 506 m 499 442 l 452 395 l 352 395 l 304 442 l 352 489 l 452 489 l 499 442 m 270 442 l 222 395 l 122 395 l 76 442 l 122 489 l 222 489 l 270 442 m 335 277 l 288 230 l 240 277 l 240 378 l 288 424 l 335 378 l 335 277 z "},",":{"ha":245,"x_min":76,"x_max":170,"o":"m 170 -100 l 122 -146 l 76 -100 l 76 95 l 170 95 l 170 -100 z "},"-":{"ha":574,"x_min":76,"x_max":499,"o":"m 452 489 l 499 442 l 452 395 l 122 395 l 76 442 l 122 489 l 452 489 z "},".":{"ha":245,"x_min":76,"x_max":170,"o":"m 76 0 l 76 95 l 170 95 l 170 0 l 76 0 z "},"/":{"ha":639,"x_min":45,"x_max":593,"o":"m 311 404 l 81 5 l 45 134 l 217 429 l 297 452 l 311 404 m 293 563 l 463 859 l 593 893 l 362 496 l 314 482 l 293 563 z "},":":{"ha":304,"x_min":105,"x_max":199,"o":"m 105 0 l 105 95 l 199 95 l 199 0 l 105 0 m 105 641 l 105 736 l 199 736 l 199 641 l 105 641 z "},";":{"ha":304,"x_min":105,"x_max":199,"o":"m 199 -100 l 153 -146 l 105 -100 l 105 95 l 199 95 l 199 -100 m 105 641 l 105 736 l 199 736 l 199 641 l 105 641 z "},"<":{"ha":500,"x_min":76,"x_max":426,"o":"m 426 670 l 208 455 l 76 455 l 359 737 l 426 737 l 426 670 m 426 146 l 359 146 l 76 428 l 208 428 l 426 212 l 426 146 z "},"=":{"ha":574,"x_min":76,"x_max":499,"o":"m 452 583 l 499 537 l 452 489 l 122 489 l 76 537 l 122 583 l 452 583 m 452 395 l 499 347 l 452 301 l 122 301 l 76 347 l 122 395 l 452 395 z "},">":{"ha":500,"x_min":76,"x_max":426,"o":"m 426 447 l 292 447 l 76 664 l 76 731 l 143 731 l 426 447 m 426 422 l 143 139 l 76 139 l 76 206 l 292 422 l 426 422 z "},"?":{"ha":681,"x_min":76,"x_max":605,"o":"m 605 495 l 571 460 l 511 519 l 511 771 l 558 819 l 605 771 l 605 495 m 540 837 l 494 789 l 170 789 l 76 884 l 494 884 l 540 837 m 170 112 l 76 18 l 76 388 l 111 424 l 170 365 l 170 112 m 505 489 l 553 442 l 505 395 l 176 395 l 129 442 l 176 489 l 505 489 m 170 -18 l 76 -18 l 76 -112 l 170 -112 l 170 -18 z "},"@":{"ha":798,"x_min":76,"x_max":723,"o":"m 723 648 l 688 612 l 629 672 l 629 771 l 723 866 l 723 648 m 705 884 l 611 789 l 187 789 l 140 837 l 187 884 l 705 884 m 670 595 l 622 548 l 293 548 l 246 595 l 293 641 l 622 641 l 670 595 m 723 206 l 629 301 l 629 519 l 688 577 l 723 542 l 723 206 m 170 519 l 111 460 l 76 495 l 76 771 l 122 819 l 170 771 l 170 519 m 705 188 l 304 188 l 258 236 l 304 283 l 611 283 l 705 188 m 288 301 l 240 254 l 193 301 l 193 542 l 229 577 l 288 519 l 288 301 m 76 388 l 111 424 l 170 365 l 170 112 l 122 64 l 76 112 l 76 388 m 187 0 l 140 47 l 187 95 l 677 95 l 723 47 l 677 0 l 187 0 z "},"A":{"ha":681,"x_min":76,"x_max":605,"o":"m 587 884 l 494 789 l 187 789 l 93 884 l 587 884 m 170 365 l 170 95 l 76 0 l 76 388 l 111 424 l 170 365 m 76 495 l 76 866 l 170 771 l 170 519 l 111 460 l 76 495 m 605 388 l 605 0 l 511 95 l 511 365 l 571 424 l 605 388 m 511 519 l 511 771 l 605 866 l 605 495 l 571 460 l 511 519 m 505 489 l 553 442 l 505 395 l 176 395 l 129 442 l 176 489 l 505 489 z "},"B":{"ha":681,"x_min":76,"x_max":605,"o":"m 605 112 l 558 64 l 511 112 l 511 365 l 571 424 l 605 388 l 605 112 m 605 495 l 571 460 l 511 519 l 511 771 l 558 819 l 605 771 l 605 495 m 540 837 l 494 789 l 187 789 l 93 884 l 494 884 l 540 837 m 540 47 l 494 0 l 93 0 l 187 95 l 494 95 l 540 47 m 170 519 l 111 460 l 76 495 l 76 866 l 170 771 l 170 519 m 170 112 l 76 18 l 76 388 l 111 424 l 170 365 l 170 112 m 505 489 l 553 442 l 505 395 l 176 395 l 129 442 l 176 489 l 505 489 z "},"C":{"ha":681,"x_min":76,"x_max":605,"o":"m 605 884 l 511 789 l 187 789 l 140 837 l 187 884 l 605 884 m 170 519 l 111 460 l 76 495 l 76 771 l 122 819 l 170 771 l 170 519 m 605 0 l 187 0 l 140 47 l 187 95 l 511 95 l 605 0 m 170 112 l 122 64 l 76 112 l 76 388 l 111 424 l 170 365 l 170 112 z "},"D":{"ha":681,"x_min":76,"x_max":605,"o":"m 605 112 l 558 64 l 511 112 l 511 365 l 571 424 l 605 388 l 605 112 m 605 495 l 571 460 l 511 519 l 511 771 l 558 819 l 605 771 l 605 495 m 540 837 l 494 789 l 187 789 l 93 884 l 494 884 l 540 837 m 540 47 l 494 0 l 93 0 l 187 95 l 494 95 l 540 47 m 170 519 l 111 460 l 76 495 l 76 866 l 170 771 l 170 519 m 170 112 l 76 18 l 76 388 l 111 424 l 170 365 l 170 112 z "},"E":{"ha":681,"x_min":76,"x_max":605,"o":"m 605 884 l 511 789 l 187 789 l 93 884 l 605 884 m 605 0 l 93 0 l 187 95 l 511 95 l 605 0 m 170 365 l 170 112 l 76 18 l 76 388 l 111 424 l 170 365 m 76 495 l 76 866 l 170 771 l 170 519 l 111 460 l 76 495 m 505 489 l 553 442 l 505 395 l 176 395 l 129 442 l 176 489 l 505 489 z "},"F":{"ha":681,"x_min":76,"x_max":605,"o":"m 605 884 l 511 789 l 187 789 l 93 884 l 605 884 m 170 365 l 170 112 l 76 18 l 76 388 l 111 424 l 170 365 m 76 495 l 76 866 l 170 771 l 170 519 l 111 460 l 76 495 m 505 489 l 553 442 l 505 395 l 176 395 l 129 442 l 176 489 l 505 489 z "},"G":{"ha":681,"x_min":76,"x_max":605,"o":"m 587 884 l 494 789 l 187 789 l 140 837 l 187 884 l 587 884 m 553 442 l 505 395 l 399 395 l 352 442 l 399 489 l 505 489 l 553 442 m 170 519 l 111 460 l 76 495 l 76 771 l 122 819 l 170 771 l 170 519 m 170 112 l 122 64 l 76 112 l 76 388 l 111 424 l 170 365 l 170 112 m 494 0 l 540 47 l 494 95 l 187 95 l 140 47 l 187 0 l 494 0 m 605 112 l 558 64 l 511 112 l 511 365 l 571 424 l 605 388 l 605 112 z "},"H":{"ha":681,"x_min":76,"x_max":605,"o":"m 170 365 l 170 95 l 76 0 l 76 388 l 111 424 l 170 365 m 76 495 l 76 884 l 170 789 l 170 519 l 111 460 l 76 495 m 605 388 l 605 0 l 511 95 l 511 365 l 571 424 l 605 388 m 511 519 l 511 789 l 605 884 l 605 495 l 571 460 l 511 519 m 505 489 l 553 442 l 505 395 l 176 395 l 129 442 l 176 489 l 505 489 z "},"I":{"ha":362,"x_min":134,"x_max":229,"o":"m 229 495 l 193 460 l 134 519 l 134 837 l 181 884 l 229 837 l 229 495 m 229 47 l 181 0 l 134 47 l 134 365 l 193 424 l 229 388 l 229 47 z "},"J":{"ha":681,"x_min":76,"x_max":605,"o":"m 587 0 l 93 0 l 187 95 l 494 95 l 587 0 m 170 247 l 170 112 l 76 18 l 76 271 l 111 306 l 170 247 m 605 388 l 605 18 l 511 112 l 511 365 l 571 424 l 605 388 m 511 519 l 511 789 l 605 884 l 605 495 l 571 460 l 511 519 z "},"K":{"ha":681,"x_min":76,"x_max":605,"o":"m 170 365 l 170 95 l 76 0 l 76 388 l 111 424 l 170 365 m 76 495 l 76 884 l 170 789 l 170 519 l 111 460 l 76 495 m 605 388 l 605 0 l 511 95 l 511 365 l 571 424 l 605 388 m 494 880 l 561 880 l 561 813 l 260 516 l 193 516 l 193 583 l 494 880 m 505 489 l 553 442 l 505 395 l 176 395 l 129 442 l 176 489 l 505 489 z "},"L":{"ha":681,"x_min":76,"x_max":605,"o":"m 605 0 l 93 0 l 187 95 l 511 95 l 605 0 m 170 365 l 170 112 l 76 18 l 76 388 l 111 424 l 170 365 m 76 495 l 76 884 l 170 789 l 170 519 l 111 460 l 76 495 z "},"M":{"ha":681,"x_min":76,"x_max":605,"o":"m 587 884 l 494 789 l 187 789 l 93 884 l 587 884 m 170 365 l 170 95 l 76 0 l 76 388 l 111 424 l 170 365 m 76 495 l 76 866 l 170 771 l 170 519 l 111 460 l 76 495 m 605 388 l 605 0 l 511 95 l 511 365 l 571 424 l 605 388 m 511 519 l 511 771 l 605 866 l 605 495 l 571 460 l 511 519 m 293 718 l 340 765 l 388 718 l 388 508 l 340 460 l 293 508 l 293 718 z "},"N":{"ha":681,"x_min":76,"x_max":605,"o":"m 170 365 l 170 95 l 76 0 l 76 388 l 111 424 l 170 365 m 76 495 l 76 884 l 170 789 l 170 519 l 111 460 l 76 495 m 605 388 l 605 0 l 511 95 l 511 365 l 571 424 l 605 388 m 511 519 l 511 789 l 605 884 l 605 495 l 571 460 l 511 519 m 192 721 l 192 789 l 259 789 l 489 559 l 489 492 l 422 492 l 192 721 z "},"O":{"ha":681,"x_min":76,"x_max":605,"o":"m 605 495 l 571 460 l 511 519 l 511 771 l 558 819 l 605 771 l 605 495 m 540 837 l 494 789 l 187 789 l 140 837 l 187 884 l 494 884 l 540 837 m 605 112 l 558 64 l 511 112 l 511 365 l 571 424 l 605 388 l 605 112 m 170 519 l 111 460 l 76 495 l 76 771 l 122 819 l 170 771 l 170 519 m 76 112 l 122 64 l 170 112 l 170 365 l 111 424 l 76 388 l 76 112 m 187 0 l 140 47 l 187 95 l 494 95 l 540 47 l 494 0 l 187 0 z "},"P":{"ha":681,"x_min":76,"x_max":605,"o":"m 605 495 l 571 460 l 511 519 l 511 771 l 558 819 l 605 771 l 605 495 m 540 837 l 494 789 l 187 789 l 93 884 l 494 884 l 540 837 m 170 519 l 111 460 l 76 495 l 76 866 l 170 771 l 170 519 m 170 95 l 76 0 l 76 388 l 111 424 l 170 365 l 170 95 m 505 489 l 553 442 l 505 395 l 176 395 l 129 442 l 176 489 l 505 489 z "},"Q":{"ha":681,"x_min":76,"x_max":605,"o":"m 605 495 l 571 460 l 511 519 l 511 771 l 558 819 l 605 771 l 605 495 m 540 837 l 494 789 l 187 789 l 140 837 l 187 884 l 494 884 l 540 837 m 605 196 l 558 149 l 511 196 l 511 365 l 571 424 l 605 388 l 605 196 m 170 519 l 111 460 l 76 495 l 76 771 l 122 819 l 170 771 l 170 519 m 76 112 l 122 64 l 170 112 l 170 365 l 111 424 l 76 388 l 76 112 m 187 0 l 140 47 l 187 95 l 409 95 l 456 47 l 409 0 l 187 0 m 427 112 l 427 179 l 494 179 l 605 67 l 605 0 l 538 0 l 427 112 z "},"R":{"ha":681,"x_min":76,"x_max":605,"o":"m 605 495 l 571 460 l 511 519 l 511 771 l 558 819 l 605 771 l 605 495 m 540 837 l 494 789 l 187 789 l 93 884 l 494 884 l 540 837 m 170 519 l 111 460 l 76 495 l 76 866 l 170 771 l 170 519 m 170 95 l 76 0 l 76 388 l 111 424 l 170 365 l 170 95 m 235 304 l 235 371 l 302 371 l 605 67 l 605 0 l 538 0 l 235 304 m 505 489 l 553 442 l 505 395 l 176 395 l 129 442 l 176 489 l 505 489 z "},"S":{"ha":681,"x_min":76,"x_max":605,"o":"m 605 837 l 558 789 l 187 789 l 140 837 l 187 884 l 558 884 l 605 837 m 605 112 l 558 64 l 511 112 l 511 365 l 571 424 l 605 388 l 605 112 m 170 519 l 111 460 l 76 495 l 76 771 l 122 819 l 170 771 l 170 519 m 122 0 l 76 47 l 122 95 l 494 95 l 540 47 l 494 0 l 122 0 m 505 489 l 553 442 l 505 395 l 176 395 l 129 442 l 176 489 l 505 489 z "},"T":{"ha":681,"x_min":76,"x_max":605,"o":"m 605 884 l 511 789 l 170 789 l 76 884 l 605 884 m 388 47 l 340 0 l 293 47 l 293 318 l 352 378 l 388 342 l 388 47 m 388 447 l 352 413 l 293 471 l 293 725 l 340 771 l 388 725 l 388 447 z "},"U":{"ha":681,"x_min":76,"x_max":605,"o":"m 605 112 l 558 64 l 511 112 l 511 365 l 571 424 l 605 388 l 605 112 m 76 112 l 122 64 l 170 112 l 170 365 l 111 424 l 76 388 l 76 112 m 187 0 l 140 47 l 187 95 l 494 95 l 540 47 l 494 0 l 187 0 m 76 495 l 76 884 l 170 789 l 170 519 l 111 460 l 76 495 m 511 519 l 511 789 l 605 884 l 605 495 l 571 460 l 511 519 z "},"V":{"ha":681,"x_min":76,"x_max":605,"o":"m 605 495 l 571 460 l 511 519 l 511 789 l 605 884 l 605 495 m 563 356 l 254 47 l 187 47 l 187 114 l 496 424 l 571 426 l 563 356 m 170 519 l 111 460 l 76 495 l 76 884 l 170 789 l 170 519 m 76 47 l 122 0 l 170 47 l 170 365 l 111 424 l 76 388 l 76 47 z "},"W":{"ha":681,"x_min":76,"x_max":605,"o":"m 605 495 l 571 460 l 511 519 l 511 789 l 605 884 l 605 495 m 170 519 l 111 460 l 76 495 l 76 884 l 170 789 l 170 519 m 605 18 l 511 112 l 511 365 l 571 424 l 605 388 l 605 18 m 388 164 l 340 117 l 293 164 l 293 376 l 340 424 l 388 376 l 388 164 m 587 0 l 93 0 l 187 95 l 494 95 l 587 0 m 170 112 l 76 18 l 76 388 l 111 424 l 170 365 l 170 112 z "},"X":{"ha":681,"x_min":76,"x_max":605,"o":"m 359 460 l 359 563 l 551 884 l 605 884 l 605 792 l 407 460 l 359 460 m 275 460 l 76 792 l 76 884 l 130 884 l 322 563 l 322 460 l 275 460 m 322 424 l 322 321 l 130 0 l 76 0 l 76 92 l 275 424 l 322 424 m 405 424 l 605 92 l 605 0 l 551 0 l 359 321 l 359 424 l 405 424 z "},"Y":{"ha":681,"x_min":76,"x_max":605,"o":"m 605 495 l 571 460 l 511 519 l 511 789 l 605 884 l 605 495 m 76 495 l 111 460 l 170 519 l 170 789 l 76 884 l 76 495 m 187 0 l 140 47 l 187 95 l 494 95 l 540 47 l 494 0 l 187 0 m 605 112 l 558 64 l 511 112 l 511 365 l 571 424 l 605 388 l 605 112 m 505 489 l 553 442 l 505 395 l 176 395 l 129 442 l 176 489 l 505 489 z "},"Z":{"ha":681,"x_min":76,"x_max":605,"o":"m 605 837 l 558 789 l 170 789 l 76 884 l 558 884 l 605 837 m 587 0 l 122 0 l 76 47 l 122 95 l 494 95 l 587 0 m 422 466 l 338 456 l 335 506 l 539 765 l 605 765 l 605 696 l 422 466 m 266 424 l 317 429 l 328 346 l 145 117 l 76 117 l 76 183 l 266 424 z "},"[":{"ha":446,"x_min":76,"x_max":370,"o":"m 370 884 l 275 789 l 187 789 l 93 884 l 370 884 m 370 0 l 93 0 l 187 95 l 275 95 l 370 0 m 170 365 l 170 112 l 76 18 l 76 388 l 111 424 l 170 365 m 76 495 l 76 866 l 170 771 l 170 519 l 111 460 l 76 495 z "},"\\":{"ha":639,"x_min":45,"x_max":593,"o":"m 346 563 l 323 482 l 275 496 l 45 893 l 174 859 l 346 563 m 593 134 l 558 5 l 330 404 l 341 452 l 422 429 l 593 134 z "},"]":{"ha":446,"x_min":76,"x_max":370,"o":"m 352 884 l 258 789 l 170 789 l 76 884 l 352 884 m 370 495 l 335 460 l 275 519 l 275 771 l 370 866 l 370 495 m 370 18 l 275 112 l 275 365 l 335 424 l 370 388 l 370 18 m 352 0 l 76 0 l 170 95 l 258 95 l 352 0 z "},"^":{"ha":621,"x_min":76,"x_max":545,"o":"m 480 592 l 321 750 l 321 884 l 545 660 l 545 592 l 480 592 m 76 596 l 76 663 l 295 884 l 295 750 l 141 596 l 76 596 z "},"_":{"ha":562,"x_min":34,"x_max":529,"o":"m 481 -141 l 529 -188 l 481 -236 l 81 -236 l 34 -188 l 81 -141 l 481 -141 z "},"`":{"ha":314,"x_min":76,"x_max":239,"o":"m 239 750 l 221 686 l 158 703 l 76 846 l 157 893 l 239 750 z "},"a":{"ha":681,"x_min":76,"x_max":605,"o":"m 587 884 l 494 789 l 187 789 l 93 884 l 587 884 m 170 365 l 170 95 l 76 0 l 76 388 l 111 424 l 170 365 m 76 495 l 76 866 l 170 771 l 170 519 l 111 460 l 76 495 m 605 388 l 605 0 l 511 95 l 511 365 l 571 424 l 605 388 m 511 519 l 511 771 l 605 866 l 605 495 l 571 460 l 511 519 m 505 489 l 553 442 l 505 395 l 176 395 l 129 442 l 176 489 l 505 489 z "},"b":{"ha":681,"x_min":76,"x_max":605,"o":"m 605 112 l 558 64 l 511 112 l 511 365 l 571 424 l 605 388 l 605 112 m 605 495 l 571 460 l 511 519 l 511 771 l 558 819 l 605 771 l 605 495 m 540 837 l 494 789 l 187 789 l 93 884 l 494 884 l 540 837 m 540 47 l 494 0 l 93 0 l 187 95 l 494 95 l 540 47 m 170 519 l 111 460 l 76 495 l 76 866 l 170 771 l 170 519 m 170 112 l 76 18 l 76 388 l 111 424 l 170 365 l 170 112 m 505 489 l 553 442 l 505 395 l 176 395 l 129 442 l 176 489 l 505 489 z "},"c":{"ha":681,"x_min":76,"x_max":605,"o":"m 605 884 l 511 789 l 187 789 l 140 837 l 187 884 l 605 884 m 170 519 l 111 460 l 76 495 l 76 771 l 122 819 l 170 771 l 170 519 m 605 0 l 187 0 l 140 47 l 187 95 l 511 95 l 605 0 m 170 112 l 122 64 l 76 112 l 76 388 l 111 424 l 170 365 l 170 112 z "},"d":{"ha":681,"x_min":76,"x_max":605,"o":"m 605 112 l 558 64 l 511 112 l 511 365 l 571 424 l 605 388 l 605 112 m 605 495 l 571 460 l 511 519 l 511 771 l 558 819 l 605 771 l 605 495 m 540 837 l 494 789 l 187 789 l 93 884 l 494 884 l 540 837 m 540 47 l 494 0 l 93 0 l 187 95 l 494 95 l 540 47 m 170 519 l 111 460 l 76 495 l 76 866 l 170 771 l 170 519 m 170 112 l 76 18 l 76 388 l 111 424 l 170 365 l 170 112 z "},"e":{"ha":681,"x_min":76,"x_max":605,"o":"m 605 884 l 511 789 l 187 789 l 93 884 l 605 884 m 605 0 l 93 0 l 187 95 l 511 95 l 605 0 m 170 365 l 170 112 l 76 18 l 76 388 l 111 424 l 170 365 m 76 495 l 76 866 l 170 771 l 170 519 l 111 460 l 76 495 m 505 489 l 553 442 l 505 395 l 176 395 l 129 442 l 176 489 l 505 489 z "},"f":{"ha":681,"x_min":76,"x_max":605,"o":"m 605 884 l 511 789 l 187 789 l 93 884 l 605 884 m 170 365 l 170 112 l 76 18 l 76 388 l 111 424 l 170 365 m 76 495 l 76 866 l 170 771 l 170 519 l 111 460 l 76 495 m 505 489 l 553 442 l 505 395 l 176 395 l 129 442 l 176 489 l 505 489 z "},"g":{"ha":681,"x_min":76,"x_max":605,"o":"m 587 884 l 494 789 l 187 789 l 140 837 l 187 884 l 587 884 m 553 442 l 505 395 l 399 395 l 352 442 l 399 489 l 505 489 l 553 442 m 170 519 l 111 460 l 76 495 l 76 771 l 122 819 l 170 771 l 170 519 m 170 112 l 122 64 l 76 112 l 76 388 l 111 424 l 170 365 l 170 112 m 494 0 l 540 47 l 494 95 l 187 95 l 140 47 l 187 0 l 494 0 m 605 112 l 558 64 l 511 112 l 511 365 l 571 424 l 605 388 l 605 112 z "},"h":{"ha":681,"x_min":76,"x_max":605,"o":"m 170 365 l 170 95 l 76 0 l 76 388 l 111 424 l 170 365 m 76 495 l 76 884 l 170 789 l 170 519 l 111 460 l 76 495 m 605 388 l 605 0 l 511 95 l 511 365 l 571 424 l 605 388 m 511 519 l 511 789 l 605 884 l 605 495 l 571 460 l 511 519 m 505 489 l 553 442 l 505 395 l 176 395 l 129 442 l 176 489 l 505 489 z "},"i":{"ha":362,"x_min":134,"x_max":229,"o":"m 229 495 l 193 460 l 134 519 l 134 837 l 181 884 l 229 837 l 229 495 m 229 47 l 181 0 l 134 47 l 134 365 l 193 424 l 229 388 l 229 47 z "},"j":{"ha":681,"x_min":76,"x_max":605,"o":"m 587 0 l 93 0 l 187 95 l 494 95 l 587 0 m 170 247 l 170 112 l 76 18 l 76 271 l 111 306 l 170 247 m 605 388 l 605 18 l 511 112 l 511 365 l 571 424 l 605 388 m 511 519 l 511 789 l 605 884 l 605 495 l 571 460 l 511 519 z "},"k":{"ha":681,"x_min":76,"x_max":605,"o":"m 170 365 l 170 95 l 76 0 l 76 388 l 111 424 l 170 365 m 76 495 l 76 884 l 170 789 l 170 519 l 111 460 l 76 495 m 605 388 l 605 0 l 511 95 l 511 365 l 571 424 l 605 388 m 494 880 l 561 880 l 561 813 l 260 516 l 193 516 l 193 583 l 494 880 m 505 489 l 553 442 l 505 395 l 176 395 l 129 442 l 176 489 l 505 489 z "},"l":{"ha":681,"x_min":76,"x_max":605,"o":"m 605 0 l 93 0 l 187 95 l 511 95 l 605 0 m 170 365 l 170 112 l 76 18 l 76 388 l 111 424 l 170 365 m 76 495 l 76 884 l 170 789 l 170 519 l 111 460 l 76 495 z "},"m":{"ha":681,"x_min":76,"x_max":605,"o":"m 587 884 l 494 789 l 187 789 l 93 884 l 587 884 m 170 365 l 170 95 l 76 0 l 76 388 l 111 424 l 170 365 m 76 495 l 76 866 l 170 771 l 170 519 l 111 460 l 76 495 m 605 388 l 605 0 l 511 95 l 511 365 l 571 424 l 605 388 m 511 519 l 511 771 l 605 866 l 605 495 l 571 460 l 511 519 m 293 718 l 340 765 l 388 718 l 388 508 l 340 460 l 293 508 l 293 718 z "},"n":{"ha":681,"x_min":76,"x_max":605,"o":"m 170 365 l 170 95 l 76 0 l 76 388 l 111 424 l 170 365 m 76 495 l 76 884 l 170 789 l 170 519 l 111 460 l 76 495 m 605 388 l 605 0 l 511 95 l 511 365 l 571 424 l 605 388 m 511 519 l 511 789 l 605 884 l 605 495 l 571 460 l 511 519 m 192 721 l 192 789 l 259 789 l 489 559 l 489 492 l 422 492 l 192 721 z "},"o":{"ha":681,"x_min":76,"x_max":605,"o":"m 605 495 l 571 460 l 511 519 l 511 771 l 558 819 l 605 771 l 605 495 m 540 837 l 494 789 l 187 789 l 140 837 l 187 884 l 494 884 l 540 837 m 605 112 l 558 64 l 511 112 l 511 365 l 571 424 l 605 388 l 605 112 m 170 519 l 111 460 l 76 495 l 76 771 l 122 819 l 170 771 l 170 519 m 76 112 l 122 64 l 170 112 l 170 365 l 111 424 l 76 388 l 76 112 m 187 0 l 140 47 l 187 95 l 494 95 l 540 47 l 494 0 l 187 0 z "},"p":{"ha":681,"x_min":76,"x_max":605,"o":"m 605 495 l 571 460 l 511 519 l 511 771 l 558 819 l 605 771 l 605 495 m 540 837 l 494 789 l 187 789 l 93 884 l 494 884 l 540 837 m 170 519 l 111 460 l 76 495 l 76 866 l 170 771 l 170 519 m 170 95 l 76 0 l 76 388 l 111 424 l 170 365 l 170 95 m 505 489 l 553 442 l 505 395 l 176 395 l 129 442 l 176 489 l 505 489 z "},"q":{"ha":681,"x_min":76,"x_max":605,"o":"m 605 495 l 571 460 l 511 519 l 511 771 l 558 819 l 605 771 l 605 495 m 540 837 l 494 789 l 187 789 l 140 837 l 187 884 l 494 884 l 540 837 m 605 196 l 558 149 l 511 196 l 511 365 l 571 424 l 605 388 l 605 196 m 170 519 l 111 460 l 76 495 l 76 771 l 122 819 l 170 771 l 170 519 m 76 112 l 122 64 l 170 112 l 170 365 l 111 424 l 76 388 l 76 112 m 187 0 l 140 47 l 187 95 l 409 95 l 456 47 l 409 0 l 187 0 m 427 112 l 427 179 l 494 179 l 605 67 l 605 0 l 538 0 l 427 112 z "},"r":{"ha":681,"x_min":76,"x_max":605,"o":"m 605 495 l 571 460 l 511 519 l 511 771 l 558 819 l 605 771 l 605 495 m 540 837 l 494 789 l 187 789 l 93 884 l 494 884 l 540 837 m 170 519 l 111 460 l 76 495 l 76 866 l 170 771 l 170 519 m 170 95 l 76 0 l 76 388 l 111 424 l 170 365 l 170 95 m 235 304 l 235 371 l 302 371 l 605 67 l 605 0 l 538 0 l 235 304 m 505 489 l 553 442 l 505 395 l 176 395 l 129 442 l 176 489 l 505 489 z "},"s":{"ha":681,"x_min":76,"x_max":605,"o":"m 605 837 l 558 789 l 187 789 l 140 837 l 187 884 l 558 884 l 605 837 m 605 112 l 558 64 l 511 112 l 511 365 l 571 424 l 605 388 l 605 112 m 170 519 l 111 460 l 76 495 l 76 771 l 122 819 l 170 771 l 170 519 m 122 0 l 76 47 l 122 95 l 494 95 l 540 47 l 494 0 l 122 0 m 505 489 l 553 442 l 505 395 l 176 395 l 129 442 l 176 489 l 505 489 z "},"t":{"ha":681,"x_min":76,"x_max":605,"o":"m 605 884 l 511 789 l 170 789 l 76 884 l 605 884 m 388 47 l 340 0 l 293 47 l 293 318 l 352 378 l 388 342 l 388 47 m 388 447 l 352 413 l 293 471 l 293 725 l 340 771 l 388 725 l 388 447 z "},"u":{"ha":681,"x_min":76,"x_max":605,"o":"m 605 112 l 558 64 l 511 112 l 511 365 l 571 424 l 605 388 l 605 112 m 76 112 l 122 64 l 170 112 l 170 365 l 111 424 l 76 388 l 76 112 m 187 0 l 140 47 l 187 95 l 494 95 l 540 47 l 494 0 l 187 0 m 76 495 l 76 884 l 170 789 l 170 519 l 111 460 l 76 495 m 511 519 l 511 789 l 605 884 l 605 495 l 571 460 l 511 519 z "},"v":{"ha":681,"x_min":76,"x_max":605,"o":"m 605 495 l 571 460 l 511 519 l 511 789 l 605 884 l 605 495 m 563 356 l 254 47 l 187 47 l 187 114 l 496 424 l 571 426 l 563 356 m 170 519 l 111 460 l 76 495 l 76 884 l 170 789 l 170 519 m 76 47 l 122 0 l 170 47 l 170 365 l 111 424 l 76 388 l 76 47 z "},"w":{"ha":681,"x_min":76,"x_max":605,"o":"m 605 495 l 571 460 l 511 519 l 511 789 l 605 884 l 605 495 m 170 519 l 111 460 l 76 495 l 76 884 l 170 789 l 170 519 m 605 18 l 511 112 l 511 365 l 571 424 l 605 388 l 605 18 m 388 164 l 340 117 l 293 164 l 293 376 l 340 424 l 388 376 l 388 164 m 587 0 l 93 0 l 187 95 l 494 95 l 587 0 m 170 112 l 76 18 l 76 388 l 111 424 l 170 365 l 170 112 z "},"x":{"ha":681,"x_min":76,"x_max":605,"o":"m 359 460 l 359 563 l 551 884 l 605 884 l 605 792 l 407 460 l 359 460 m 275 460 l 76 792 l 76 884 l 130 884 l 322 563 l 322 460 l 275 460 m 322 424 l 322 321 l 130 0 l 76 0 l 76 92 l 275 424 l 322 424 m 405 424 l 605 92 l 605 0 l 551 0 l 359 321 l 359 424 l 405 424 z "},"y":{"ha":681,"x_min":76,"x_max":605,"o":"m 605 495 l 571 460 l 511 519 l 511 789 l 605 884 l 605 495 m 76 495 l 111 460 l 170 519 l 170 789 l 76 884 l 76 495 m 187 0 l 140 47 l 187 95 l 494 95 l 540 47 l 494 0 l 187 0 m 605 112 l 558 64 l 511 112 l 511 365 l 571 424 l 605 388 l 605 112 m 505 489 l 553 442 l 505 395 l 176 395 l 129 442 l 176 489 l 505 489 z "},"z":{"ha":681,"x_min":76,"x_max":605,"o":"m 605 837 l 558 789 l 170 789 l 76 884 l 558 884 l 605 837 m 587 0 l 122 0 l 76 47 l 122 95 l 494 95 l 587 0 m 422 466 l 338 456 l 335 506 l 539 765 l 605 765 l 605 696 l 422 466 m 266 424 l 317 429 l 328 346 l 145 117 l 76 117 l 76 183 l 266 424 z "},"{":{"ha":528,"x_min":45,"x_max":452,"o":"m 452 884 l 359 789 l 299 789 l 253 837 l 299 884 l 452 884 m 282 495 l 246 460 l 187 519 l 187 771 l 235 819 l 282 771 l 282 495 m 229 442 l 181 395 l 93 395 l 45 442 l 93 489 l 181 489 l 229 442 m 282 112 l 235 64 l 187 112 l 187 365 l 246 424 l 282 388 l 282 112 m 452 0 l 299 0 l 253 47 l 299 95 l 359 95 l 452 0 z "},"|":{"ha":346,"x_min":128,"x_max":220,"o":"m 128 -236 l 128 884 l 220 884 l 220 -236 l 128 -236 z "},"}":{"ha":528,"x_min":76,"x_max":481,"o":"m 275 837 l 229 789 l 170 789 l 76 884 l 229 884 l 275 837 m 340 519 l 282 460 l 246 495 l 246 771 l 293 819 l 340 771 l 340 519 m 340 112 l 293 64 l 246 112 l 246 388 l 282 424 l 340 365 l 340 112 m 481 442 l 434 395 l 346 395 l 299 442 l 346 489 l 434 489 l 481 442 m 275 47 l 229 0 l 76 0 l 170 95 l 229 95 l 275 47 z "},"~":{"ha":621,"x_min":76,"x_max":545,"o":"m 76 328 l 76 448 q 129 491 101 477 q 188 504 157 504 q 321 468 240 504 q 412 447 371 447 q 479 465 447 447 q 545 521 510 484 l 545 396 q 408 342 505 342 q 366 345 385 342 q 327 353 346 347 q 261 381 308 359 q 203 398 227 398 q 146 383 176 398 q 76 328 116 367 z "},"‰":{"ha":1226,"x_min":76,"x_max":1150,"o":"m 335 846 l 288 798 l 187 798 l 140 846 l 187 893 l 288 893 l 335 846 m 335 539 l 288 492 l 187 492 l 140 539 l 187 587 l 288 587 l 335 539 m 76 605 l 122 559 l 170 605 l 170 780 l 122 828 l 76 780 l 76 605 m 304 605 l 304 780 l 352 828 l 399 780 l 399 605 l 352 559 l 304 605 m 699 354 l 653 306 l 553 306 l 505 354 l 553 400 l 653 400 l 699 354 m 699 47 l 653 0 l 553 0 l 505 47 l 553 95 l 653 95 l 699 47 m 441 112 l 487 67 l 535 112 l 535 288 l 487 336 l 441 288 l 441 112 m 670 112 l 670 288 l 717 336 l 764 288 l 764 112 l 717 67 l 670 112 m 446 404 l 217 5 l 182 134 l 354 429 l 433 452 l 446 404 m 429 563 l 600 859 l 730 893 l 499 496 l 451 482 l 429 563 m 1086 354 l 1039 306 l 939 306 l 891 354 l 939 400 l 1039 400 l 1086 354 m 1086 47 l 1039 0 l 939 0 l 891 47 l 939 95 l 1039 95 l 1086 47 m 827 112 l 874 67 l 922 112 l 922 288 l 874 336 l 827 288 l 827 112 m 1057 112 l 1057 288 l 1104 336 l 1150 288 l 1150 112 l 1104 67 l 1057 112 z "},"‘":{"ha":245,"x_min":76,"x_max":170,"o":"m 170 672 l 76 672 l 76 837 l 122 884 l 170 837 l 170 672 z "},"’":{"ha":245,"x_min":76,"x_max":170,"o":"m 170 718 l 122 672 l 76 718 l 76 884 l 170 884 l 170 718 z "},"“":{"ha":386,"x_min":76,"x_max":312,"o":"m 312 672 l 217 672 l 217 837 l 264 884 l 312 837 l 312 672 m 170 672 l 76 672 l 76 837 l 122 884 l 170 837 l 170 672 z "},"”":{"ha":386,"x_min":76,"x_max":312,"o":"m 170 718 l 122 672 l 76 718 l 76 884 l 170 884 l 170 718 m 312 718 l 264 672 l 217 718 l 217 884 l 312 884 l 312 718 z "},"•":{"ha":681,"x_min":76,"x_max":605,"o":"m 76 442 q 153 629 76 552 q 340 707 231 707 q 528 630 451 707 q 605 442 605 553 q 527 254 605 332 q 340 177 449 177 q 153 254 230 177 q 76 442 76 331 z "},"–":{"ha":705,"x_min":14,"x_max":686,"o":"m 638 489 l 686 442 l 638 395 l 62 395 l 14 442 l 62 489 l 638 489 z "},"—":{"ha":1239,"x_min":14,"x_max":1222,"o":"m 1176 489 l 1222 442 l 1176 395 l 62 395 l 14 442 l 62 489 l 1176 489 z "}}}
